<!-- 收藏夹为空 -->
<svg height="800" node-id="1" sillyvg="true" template-height="800" template-width="800" version="1.1" viewBox="0 0 800 800" width="800" xmlns="http://www.w3.org/2000/svg" xmlns:xlink="http://www.w3.org/1999/xlink"><defs node-id="56"><linearGradient gradientUnits="userSpaceOnUse" id="SVGID_1_" node-id="8" spreadMethod="pad" x1="401.6417" x2="401.6417" y1="532.4023" y2="682.0411"><stop offset="0" stop-color="#d4dbe5"/><stop offset="1" stop-color="#ffffff"/></linearGradient><linearGradient gradientUnits="userSpaceOnUse" id="SVGID_2_" node-id="12" spreadMethod="pad" x1="393.7185" x2="393.7185" y1="461.4239" y2="147.0732"><stop offset="0.1119" stop-color="#ffffff"/><stop offset="0.9205" stop-color="#e2e6ed"/></linearGradient><linearGradient gradientUnits="userSpaceOnUse" id="SVGID_3_" node-id="16" spreadMethod="pad" x1="149.9839" x2="149.9839" y1="386.371" y2="355.9859"><stop offset="0.1119" stop-color="#f1f3f6"/><stop offset="0.9205" stop-color="#d2d9e3"/></linearGradient><linearGradient gradientUnits="userSpaceOnUse" id="SVGID_4_" node-id="20" spreadMethod="pad" x1="601.5957" x2="601.5957" y1="299.8713" y2="256.744"><stop offset="0.1119" stop-color="#f1f3f6"/><stop offset="0.9205" stop-color="#d2d9e3"/></linearGradient><linearGradient gradientTransform="matrix(0 -1 1 0 -1618.3694 -2505.4148)" gradientUnits="userSpaceOnUse" id="SVGID_5_" node-id="24" spreadMethod="pad" x1="-3090.5146" x2="-3090.5146" y1="2210.6536" y2="2186.1494"><stop offset="0.1119" stop-color="#f1f3f6"/><stop offset="0.9205" stop-color="#d2d9e3"/></linearGradient><linearGradient gradientUnits="userSpaceOnUse" id="SVGID_6_" node-id="29" spreadMethod="pad" x1="408.7551" x2="408.7551" y1="567.3864" y2="293.2074"><stop offset="0.1119" stop-color="#c9d5e2"/><stop offset="0.9205" stop-color="#dae0e8"/></linearGradient><linearGradient gradientUnits="userSpaceOnUse" id="SVGID_7_" node-id="33" spreadMethod="pad" x1="250.9423" x2="601.3718" y1="483.7418" y2="483.7418"><stop offset="0.1119" stop-color="#c9d5e2"/><stop offset="0.9205" stop-color="#d2d9e3"/></linearGradient><linearGradient gradientUnits="userSpaceOnUse" id="SVGID_8_" node-id="37" spreadMethod="pad" x1="352.3977" x2="505.3472" y1="355.7201" y2="620.6364"><stop offset="0.0884" stop-color="#ebeef2"/><stop offset="0.7879" stop-color="#d6dce5"/></linearGradient><linearGradient gradientUnits="userSpaceOnUse" id="SVGID_9_" node-id="41" spreadMethod="pad" x1="496.3526" x2="367.0004" y1="489.1288" y2="489.1288"><stop offset="0.1119" stop-color="#c9d5e2"/><stop offset="0.9205" stop-color="#dae0e8"/></linearGradient></defs><g node-id="139"><g node-id="140"><path d="M 696.18 607.22 C 696.18 648.54 564.31 682.04 401.64 682.04 C 238.97 682.04 107.10 648.54 107.10 607.22 C 107.10 565.90 238.97 532.40 401.64 532.40 C 564.31 532.40 696.18 565.90 696.18 607.22 Z" fill="url(#SVGID_1_)" fill-rule="nonzero" group-id="1,2" node-id="118" stroke="none" target-height="149.63995" target-width="589.08" target-x="107.1" target-y="532.4"/><path d="M 570.94 283.56 L 570.94 164.29 L 547.00 147.07 L 442.43 188.65 L 442.43 310.44 L 418.50 310.44 L 418.50 276.84 L 372.72 276.84 L 372.72 308.34 L 350.88 308.34 L 350.88 249.54 L 311.41 249.54 L 311.41 353.69 L 300.49 353.69 L 300.49 170.17 L 207.26 170.17 L 207.26 338.57 L 159.80 338.57 L 159.80 400.95 L 132.50 400.95 L 132.50 461.42 L 654.93 461.42 L 654.93 456.58 L 654.93 400.95 L 654.93 283.56 Z" fill="url(#SVGID_2_)" fill-rule="nonzero" group-id="1,2" node-id="120" stroke="none" target-height="314.35" target-width="522.43" target-x="132.5" target-y="147.07"/><path d="M 165.17 371.18 C 165.17 379.57 158.37 386.37 149.98 386.37 C 141.59 386.37 134.79 379.57 134.79 371.18 C 134.79 362.79 141.59 355.99 149.98 355.99 C 158.37 355.99 165.17 362.79 165.17 371.18 Z" fill="url(#SVGID_3_)" fill-rule="nonzero" group-id="1,2" node-id="122" stroke="none" target-height="30.380005" target-width="30.380005" target-x="134.79" target-y="355.99"/><path d="M 623.16 278.31 C 623.16 290.22 613.51 299.87 601.60 299.87 C 589.69 299.87 580.04 290.22 580.04 278.31 C 580.04 266.40 589.69 256.75 601.60 256.75 C 613.51 256.75 623.16 266.40 623.16 278.31 Z" fill="url(#SVGID_4_)" fill-rule="nonzero" group-id="1,2" node-id="124" stroke="none" target-height="43.119995" target-width="43.119995" target-x="580.04" target-y="256.75"/><path d="M 592.28 585.10 C 592.28 591.87 586.80 597.35 580.03 597.35 C 573.26 597.35 567.78 591.87 567.78 585.10 C 567.78 578.33 573.26 572.85 580.03 572.85 C 586.80 572.85 592.28 578.33 592.28 585.10 Z" fill="url(#SVGID_5_)" fill-rule="nonzero" group-id="1,2" node-id="126" stroke="none" target-height="24.5" target-width="24.5" target-x="567.78" target-y="572.85"/></g><g node-id="141"><path d="M 541.81 335.69 L 409.46 335.69 L 409.46 313.22 C 409.46 302.17 400.50 293.21 389.45 293.21 L 275.70 293.21 C 264.65 293.21 255.69 302.17 255.69 313.22 L 255.69 567.39 L 409.45 567.39 L 409.45 529.12 L 561.81 529.12 L 561.81 355.70 C 561.82 344.64 552.86 335.69 541.81 335.69 Z" fill="url(#SVGID_6_)" fill-rule="nonzero" group-id="1,3" node-id="131" stroke="none" target-height="274.18002" target-width="306.13" target-x="255.69" target-y="293.21"/><path d="M 578.83 376.19 L 307.15 376.19 C 296.51 376.19 287.32 384.04 285.11 395.02 L 251.43 562.61 C 248.46 577.38 259.15 591.29 273.47 591.29 L 541.41 591.29 C 551.86 591.29 560.94 583.71 563.34 572.98 L 600.76 405.39 C 604.09 390.48 593.36 376.19 578.83 376.19 Z" fill="url(#SVGID_7_)" fill-rule="nonzero" group-id="1,3" node-id="133" stroke="none" target-height="215.09998" target-width="355.63" target-x="248.46" target-y="376.19"/><path d="M 580.94 382.85 L 311.17 382.85 C 300.60 382.85 291.48 390.60 289.29 401.43 L 255.85 566.82 C 252.90 581.40 263.51 595.12 277.73 595.12 L 543.78 595.12 C 554.16 595.12 563.17 587.64 565.55 577.05 L 602.70 411.66 C 606.02 396.94 595.37 382.85 580.94 382.85 Z" fill="url(#SVGID_8_)" fill-rule="nonzero" group-id="1,3" node-id="135" stroke="none" target-height="212.26999" target-width="353.12003" target-x="252.9" target-y="382.85"/><path d="M 438.37 431.41 L 452.57 460.19 C 453.66 462.39 455.76 463.92 458.19 464.27 L 489.95 468.89 C 496.07 469.78 498.52 477.30 494.09 481.62 L 471.11 504.02 C 469.35 505.73 468.55 508.20 468.96 510.63 L 474.39 542.26 C 475.44 548.36 469.04 553.01 463.56 550.13 L 435.15 535.19 C 432.98 534.05 430.38 534.05 428.20 535.19 L 399.79 550.13 C 394.31 553.01 387.92 548.36 388.96 542.26 L 394.39 510.63 C 394.81 508.21 394.00 505.74 392.24 504.02 L 369.26 481.62 C 364.83 477.30 367.27 469.78 373.40 468.89 L 405.16 464.27 C 407.59 463.92 409.69 462.39 410.78 460.19 L 424.98 431.41 C 427.72 425.87 435.63 425.87 438.37 431.41 Z" fill="url(#SVGID_9_)" fill-rule="nonzero" group-id="1,3" node-id="137" stroke="none" target-height="127.140015" target-width="133.69" target-x="364.83" target-y="425.87"/></g></g></svg>
